<svg xmlns="http://www.w3.org/2000/svg" width="900" height="900" viewBox="0 0 900 900">
  <defs>
    <linearGradient id="portraitBg" x1="0" y1="0" x2="1" y2="1">
      <stop offset="0%" stop-color="#101f1a" />
      <stop offset="100%" stop-color="#113230" />
    </linearGradient>
  </defs>
  <rect width="100%" height="100%" rx="32" fill="url(#portraitBg)" />
  <ellipse cx="450" cy="280" rx="160" ry="190" fill="#122f2a" />
  <path d="M320 560c0-75 70-110 130-110s130 35 130 110v10H320v-10Z" fill="#122f2a" />
  <path d="M360 310c0-45 34-84 75-84s75 39 75 84-34 84-75 84-75-39-75-84Z" fill="#dbeee3" />
  <path d="M360 300c0-30 25-55 55-55s55 25 55 55-25 55-55 55-55-25-55-55Z" fill="#091b17" />
  <path d="M385 340c22 0 40-10 40-22s-18-22-40-22-40 10-40 22 18 22 40 22Z" fill="#122f2a" />
  <path d="M390 420c20 16 58 16 78 0v110H390V420Z" fill="#122f2a" />
  <rect x="340" y="610" width="220" height="34" rx="16" fill="#0f2a24" />
  <path d="M370 420c0 14 12 26 26 26h108c14 0 26-12 26-26v-32H370v32Z" fill="#132f28" />
</svg>
